<?xml version="1.0" encoding="UTF-8" standalone="no"?>
<!DOCTYPE svg PUBLIC "-//W3C//DTD SVG 1.1//EN" "http://www.w3.org/Graphics/SVG/1.1/DTD/svg11.dtd">
<svg width="100%" height="100%" viewBox="0 0 366 502" version="1.1" xmlns="http://www.w3.org/2000/svg" xmlns:xlink="http://www.w3.org/1999/xlink" xml:space="preserve" xmlns:serif="http://www.serif.com/" style="fill-rule:evenodd;clip-rule:evenodd;stroke-linejoin:round;stroke-miterlimit:2;">
    <g transform="matrix(-1.0585,-0.00962275,0.0108578,-1.19436,368.206,859.404)">
        <path d="M179.671,304.871L289.621,458.149L69.72,458.149L179.671,304.871Z" style="fill:white;"/>
    </g>
    <g transform="matrix(1.17716,0,0,1.28165,-2.71627,-42.3778)">
        <ellipse cx="158.668" cy="176.52" rx="143.336" ry="132.375" style="fill:white;"/>
    </g>
    <g transform="matrix(1,0,0,1,-84.74,-15.18)">
        <path d="M450.46,198C452.3,220.38 444.83,242.91 435.57,265C418,307 395,345.86 367.76,382.37C353.13,401.96 340.62,423.13 326.5,443.12C314.21,460.54 301.24,477.49 288.08,494.26C282.77,501.03 276.38,507 270.08,512.89C264.36,518.22 257.94,517.39 253.4,510.89C249.5,505.3 246.28,499.25 242.55,493.55C239.65,489.11 236.39,484.9 233.35,480.55C223.47,466.34 213.17,452.39 203.86,437.81C190.78,417.32 178.03,396.59 165.86,375.53C144.39,338.32 123.56,300.75 102.32,263.41C91.52,244.41 86.74,223.72 85.49,202.29C84.485,185.682 84.485,169.028 85.49,152.42C86.76,132.32 95.99,115.15 108.57,99.7C118.763,86.908 130.73,75.638 144.11,66.23C157.38,57.07 170.27,47.23 184.11,39.1C207.58,25.33 233.58,17.92 260.47,15.94C284,14.21 308,15 330.58,23.25C373.67,39.07 407.76,65.46 427.33,108.25C432.52,119.59 438.95,130.46 443.13,142.14C449.29,159.36 451,177.51 450.46,198ZM428.73,204.17C428.05,195.79 426.73,184.52 426.28,173.17C425.04,142.51 416.68,114.65 396.67,90.63C380.47,71.18 361.45,55.79 337.92,46.23C297.43,29.79 256.43,33.5 216.53,46.57C175.38,60.05 144.47,88.3 121,124.19C112,137.93 104.3,153 102.87,169.8C100.06,202.71 105.68,234.44 121.02,263.75C138.3,296.75 156.55,329.34 174.89,361.81C185.29,380.22 196.96,397.91 207.64,416.17C222.64,441.82 238.56,466.75 259.24,488.34C262.1,491.34 263.98,491.39 266.35,488.34C270.43,483.08 274.58,477.87 278.55,472.53C290.55,456.37 302.84,440.39 314.38,423.9C332.03,398.66 348.57,372.62 366.65,347.7C390.31,315.07 407.96,279.4 423.2,242.34C427.82,231 428.76,219.11 428.73,204.12L428.73,204.17Z" style="fill-rule:nonzero;"/>
    </g>
    <g transform="matrix(1,0,0,1,-84.74,-15.18)">
        <path d="M262.5,294.44C252.9,295.38 244.21,291.64 235.79,287.76C200.87,271.67 180.79,243.19 171.69,206.93C166.3,185.5 171.4,164.79 183.16,146.31C199.34,120.89 221.45,103.08 251.69,96.84C273.46,92.36 293.59,98.21 313.29,106.7C325.54,111.99 335.29,120.43 343.29,130.93C347.63,136.62 352.52,142.06 355.87,148.31C359.723,155.256 362.622,162.69 364.49,170.41C367.61,184.41 368.82,198.84 365.9,213.07C359.79,242.81 342.16,264.34 316.42,279.39C300.077,289.045 281.48,294.236 262.5,294.44ZM270.8,114.1C244.53,114.39 225.05,121.81 211.06,140.91C201.91,153.41 195.68,167.37 191,182C189.67,186.17 189.54,190.9 189.73,195.34C190.88,221.59 202.73,242.89 221.43,260.52C226.36,265.18 232.88,268.52 239.17,271.33C255.84,278.82 272.75,275.15 289.65,271.59C304.73,268.41 315.91,259.71 324.65,247.59C340.32,225.71 345,201 340.1,175C336.02,153.42 326.75,134.51 305.85,123.71C294.947,118.143 283.017,114.872 270.8,114.1Z" style="fill-rule:nonzero;"/>
    </g>
</svg>
